<svg width="32" height="32" viewBox="0 0 32 32" fill="none" xmlns="http://www.w3.org/2000/svg">
<path d="M22.7261 17.1404C22.7597 17.1444 22.7906 17.161 22.8124 17.1868C22.8343 17.2127 22.8456 17.2458 22.844 17.2796L22.8332 17.3278L16.6738 27.9864C16.6622 28.0043 16.6464 28.0191 16.6277 28.0294C16.609 28.0397 16.588 28.0451 16.5667 28.0453H12.796C12.7633 28.0453 12.732 28.0323 12.7089 28.0092C12.6858 27.9861 12.6728 27.9548 12.6728 27.9221C12.6725 27.8996 12.678 27.8775 12.6889 27.8578L18.8483 17.1993C18.8588 17.18 18.8743 17.1639 18.8932 17.1526C18.912 17.1413 18.9335 17.1352 18.9555 17.135L22.7261 17.1404ZM19.0626 14.0874C19.0407 14.0867 19.0194 14.0804 19.0007 14.0692C18.9819 14.0579 18.9664 14.0421 18.9555 14.0231L12.6889 3.18783C12.6802 3.17383 12.6744 3.15823 12.6719 3.14195C12.6693 3.12568 12.6701 3.10906 12.6741 3.09308C12.6781 3.0771 12.6852 3.06208 12.6951 3.04892C12.705 3.03575 12.7175 3.02471 12.7317 3.01643C12.7513 3.00531 12.7735 2.99975 12.796 3.00037H16.5613C16.583 3.00157 16.6042 3.00805 16.6228 3.01925C16.6415 3.03044 16.6571 3.04603 16.6684 3.06464L22.935 13.8999C22.9465 13.9188 22.9528 13.9403 22.9531 13.9624C22.9534 13.9845 22.9478 14.0062 22.9369 14.0254C22.9259 14.0445 22.9101 14.0604 22.8909 14.0713C22.8717 14.0822 22.85 14.0878 22.8279 14.0874H19.0626Z" fill="#E31337"/>
<path d="M19.8108 3.18785C19.8021 3.17385 19.7963 3.15825 19.7938 3.14197C19.7912 3.1257 19.792 3.10908 19.796 3.0931C19.8 3.07712 19.8071 3.06211 19.817 3.04894C19.8269 3.03578 19.8394 3.02473 19.8536 3.01646C19.8746 3.00402 19.8989 2.99841 19.9232 3.00039H23.6993C23.7212 3.00058 23.7427 3.00664 23.7616 3.01794C23.7804 3.02924 23.7959 3.04537 23.8064 3.06466L30.9835 15.4639C30.9943 15.4827 31 15.5039 31 15.5255C31 15.5472 30.9943 15.5684 30.9835 15.5871L23.8064 27.981C23.7959 28.0003 23.7804 28.0165 23.7616 28.0278C23.7427 28.0391 23.7212 28.0451 23.6993 28.0453H19.9232C19.9012 28.0457 19.8794 28.0401 19.8603 28.0292C19.8411 28.0183 19.8252 28.0024 19.8142 27.9833C19.8033 27.9641 19.7977 27.9424 19.798 27.9203C19.7984 27.8982 19.8046 27.8767 19.8161 27.8579L26.9557 15.5229L19.8108 3.18785ZM16.7417 15.4586C16.7535 15.4789 16.7597 15.502 16.7597 15.5255C16.7597 15.549 16.7535 15.5721 16.7417 15.5925L9.52713 27.981C9.50754 28.0097 9.47761 28.0296 9.44365 28.0365C9.40968 28.0435 9.37433 28.0371 9.34503 28.0185L9.31289 27.981L2.01794 15.5871C2.00619 15.5668 2 15.5437 2 15.5202C2 15.4967 2.00619 15.4736 2.01794 15.4532L9.23255 3.06466C9.25214 3.03605 9.28207 3.01615 9.31603 3.00916C9.35 3.00216 9.38535 3.00862 9.41465 3.02717L9.44679 3.06466L16.7417 15.4586Z" fill="#E31337"/>
</svg>
